<?xml version="1.0" encoding="UTF-8" standalone="no"?><svg xmlns="http://www.w3.org/2000/svg" xmlns:xlink="http://www.w3.org/1999/xlink" contentScriptType="application/ecmascript" contentStyleType="text/css" height="647px" preserveAspectRatio="none" style="width:1468px;height:647px;background:#FFFFFF;" version="1.1" viewBox="0 0 1468 647" width="1468px" zoomAndPan="magnify"><defs><filter height="300%" id="f1omggvn08tcto" width="300%" x="-1" y="-1"><feGaussianBlur result="blurOut" stdDeviation="2.0"/><feColorMatrix in="blurOut" result="blurOut2" type="matrix" values="0 0 0 0 0 0 0 0 0 0 0 0 0 0 0 0 0 0 .4 0"/><feOffset dx="4.0" dy="4.0" in="blurOut2" result="blurOut3"/><feBlend in="SourceGraphic" in2="blurOut3" mode="normal"/></filter></defs><g><!--MD5=[fd8f06804651a767af6d5ee4693cdfe7]
class Coach--><rect codeLine="54" fill="#FEFECE" filter="url(#f1omggvn08tcto)" height="91.1875" id="Coach" style="stroke:#A80036;stroke-width:1.5;" width="78" x="105.0148" y="159.5"/><text fill="#000000" font-family="sans-serif" font-size="12" lengthAdjust="spacing" textLength="37" x="108.0148" y="175.6387">Coach</text><rect fill="#FFFFFF" height="15.9688" style="stroke:#000000;stroke-width:1.0;stroke-dasharray:2.0,2.0;" width="33" x="153.0148" y="156.5"/><text fill="#000000" font-family="sans-serif" font-size="12" font-style="italic" lengthAdjust="spacing" textLength="31" x="154.0148" y="168.6387">actor</text><line style="stroke:#A80036;stroke-width:1.5;" x1="106.0148" x2="182.0148" y1="183.4688" y2="183.4688"/><line style="stroke:#A80036;stroke-width:1.5;" x1="106.0148" x2="182.0148" y1="191.4688" y2="191.4688"/><text fill="#000000" font-family="sans-serif" font-size="11" lengthAdjust="spacing" textLength="59" x="111.0148" y="205.6792">visualize()</text><text fill="#000000" font-family="sans-serif" font-size="11" lengthAdjust="spacing" textLength="40" x="111.0148" y="218.4839">make()</text><text fill="#000000" font-family="sans-serif" font-size="11" lengthAdjust="spacing" textLength="48" x="111.0148" y="231.2886">extract()</text><text fill="#000000" font-family="sans-serif" font-size="11" lengthAdjust="spacing" textLength="35" x="111.0148" y="244.0933">build()</text><!--MD5=[cd5458322245a0c49df66b41751ab0c0]
class GM--><rect codeLine="36" fill="#FEFECE" filter="url(#f1omggvn08tcto)" height="103.9922" id="GM" style="stroke:#A80036;stroke-width:1.5;" width="71" x="418.5148" y="153"/><text fill="#000000" font-family="sans-serif" font-size="12" lengthAdjust="spacing" textLength="19" x="427.0148" y="169.1387">GM</text><rect fill="#FFFFFF" height="15.9688" style="stroke:#000000;stroke-width:1.0;stroke-dasharray:2.0,2.0;" width="33" x="459.5148" y="150"/><text fill="#000000" font-family="sans-serif" font-size="12" font-style="italic" lengthAdjust="spacing" textLength="31" x="460.5148" y="162.1387">actor</text><line style="stroke:#A80036;stroke-width:1.5;" x1="419.5148" x2="488.5148" y1="176.9688" y2="176.9688"/><text fill="#000000" font-family="sans-serif" font-size="11" lengthAdjust="spacing" textLength="25" x="424.5148" y="191.1792">data</text><line style="stroke:#A80036;stroke-width:1.5;" x1="419.5148" x2="488.5148" y1="197.7734" y2="197.7734"/><text fill="#000000" font-family="sans-serif" font-size="11" lengthAdjust="spacing" textLength="59" x="424.5148" y="211.9839">visualize()</text><text fill="#000000" font-family="sans-serif" font-size="11" lengthAdjust="spacing" textLength="40" x="424.5148" y="224.7886">make()</text><text fill="#000000" font-family="sans-serif" font-size="11" lengthAdjust="spacing" textLength="48" x="424.5148" y="237.5933">extract()</text><text fill="#000000" font-family="sans-serif" font-size="11" lengthAdjust="spacing" textLength="35" x="424.5148" y="250.3979">build()</text><!--MD5=[de1f8633644ee0aae50c6a7fba314ead]
class SporTechBIContractor--><rect codeLine="100" fill="#FEFECE" filter="url(#f1omggvn08tcto)" height="39.9688" id="SporTechBIContractor" style="stroke:#A80036;stroke-width:1.5;" width="173" x="822.5148" y="23"/><text fill="#000000" font-family="sans-serif" font-size="12" lengthAdjust="spacing" textLength="132" x="825.5148" y="39.1387">SporTechBIContractor</text><rect fill="#FFFFFF" height="15.9688" style="stroke:#000000;stroke-width:1.0;stroke-dasharray:2.0,2.0;" width="33" x="965.5148" y="20"/><text fill="#000000" font-family="sans-serif" font-size="12" font-style="italic" lengthAdjust="spacing" textLength="31" x="966.5148" y="32.1387">actor</text><line style="stroke:#A80036;stroke-width:1.5;" x1="823.5148" x2="994.5148" y1="46.9688" y2="46.9688"/><line style="stroke:#A80036;stroke-width:1.5;" x1="823.5148" x2="994.5148" y1="54.9688" y2="54.9688"/><!--MD5=[563fd89d482c4c23404165e69bfcbefa]
class Manger--><rect codeLine="48" fill="#FEFECE" filter="url(#f1omggvn08tcto)" height="52.7734" id="Manger" style="stroke:#A80036;stroke-width:1.5;" width="86" x="591.0148" y="464"/><text fill="#000000" font-family="sans-serif" font-size="12" lengthAdjust="spacing" textLength="45" x="594.0148" y="480.1387">Manger</text><rect fill="#FFFFFF" height="15.9688" style="stroke:#000000;stroke-width:1.0;stroke-dasharray:2.0,2.0;" width="33" x="647.0148" y="461"/><text fill="#000000" font-family="sans-serif" font-size="12" font-style="italic" lengthAdjust="spacing" textLength="31" x="648.0148" y="473.1387">actor</text><line style="stroke:#A80036;stroke-width:1.5;" x1="592.0148" x2="676.0148" y1="487.9688" y2="487.9688"/><line style="stroke:#A80036;stroke-width:1.5;" x1="592.0148" x2="676.0148" y1="495.9688" y2="495.9688"/><text fill="#000000" font-family="sans-serif" font-size="11" lengthAdjust="spacing" textLength="51" x="597.0148" y="510.1792">monitor()</text><!--MD5=[2ce0c9fb7f55b1e256ab28a8ea6b25ec]
class Customer--><rect codeLine="62" fill="#FEFECE" filter="url(#f1omggvn08tcto)" height="65.5781" id="Customer" style="stroke:#A80036;stroke-width:1.5;" width="99" x="1147.5148" y="172"/><text fill="#000000" font-family="sans-serif" font-size="12" lengthAdjust="spacing" textLength="58" x="1150.5148" y="188.1387">Customer</text><rect fill="#FFFFFF" height="15.9688" style="stroke:#000000;stroke-width:1.0;stroke-dasharray:2.0,2.0;" width="33" x="1216.5148" y="169"/><text fill="#000000" font-family="sans-serif" font-size="12" font-style="italic" lengthAdjust="spacing" textLength="31" x="1217.5148" y="181.1387">actor</text><line style="stroke:#A80036;stroke-width:1.5;" x1="1148.5148" x2="1245.5148" y1="195.9688" y2="195.9688"/><line style="stroke:#A80036;stroke-width:1.5;" x1="1148.5148" x2="1245.5148" y1="203.9688" y2="203.9688"/><text fill="#000000" font-family="sans-serif" font-size="11" lengthAdjust="spacing" textLength="30" x="1153.5148" y="218.1792">see()</text><text fill="#000000" font-family="sans-serif" font-size="11" lengthAdjust="spacing" textLength="43" x="1153.5148" y="230.9839">ingest()</text><!--MD5=[0d6d527315af725114870e25843b9662]
class SoccerCoach--><rect codeLine="76" fill="#FEFECE" filter="url(#f1omggvn08tcto)" height="65.5781" id="SoccerCoach" style="stroke:#A80036;stroke-width:1.5;" width="121" x="1252.5148" y="10"/><text fill="#000000" font-family="sans-serif" font-size="12" lengthAdjust="spacing" textLength="80" x="1255.5148" y="26.1387">SoccerCoach</text><rect fill="#FFFFFF" height="15.9688" style="stroke:#000000;stroke-width:1.0;stroke-dasharray:2.0,2.0;" width="33" x="1343.5148" y="7"/><text fill="#000000" font-family="sans-serif" font-size="12" font-style="italic" lengthAdjust="spacing" textLength="31" x="1344.5148" y="19.1387">actor</text><line style="stroke:#A80036;stroke-width:1.5;" x1="1253.5148" x2="1372.5148" y1="33.9688" y2="33.9688"/><line style="stroke:#A80036;stroke-width:1.5;" x1="1253.5148" x2="1372.5148" y1="41.9688" y2="41.9688"/><text fill="#000000" font-family="sans-serif" font-size="11" lengthAdjust="spacing" textLength="61" x="1258.5148" y="56.1792">configure()</text><text fill="#000000" font-family="sans-serif" font-size="11" lengthAdjust="spacing" textLength="49" x="1258.5148" y="68.9839">specify()</text><!--MD5=[ddc36e88a2144077ea4257ea6b073d34]
class Reaction--><rect codeLine="15" fill="#FEFECE" filter="url(#f1omggvn08tcto)" height="39.9688" id="Reaction" style="stroke:#A80036;stroke-width:1.5;" width="57" x="700.5148" y="594"/><text fill="#000000" font-family="sans-serif" font-size="12" lengthAdjust="spacing" textLength="51" x="703.5148" y="610.1387">Reaction</text><line style="stroke:#A80036;stroke-width:1.5;" x1="701.5148" x2="756.5148" y1="617.9688" y2="617.9688"/><line style="stroke:#A80036;stroke-width:1.5;" x1="701.5148" x2="756.5148" y1="625.9688" y2="625.9688"/><!--MD5=[fafc4399c852450a8ddc76384e2aa5f5]
class SporTechBI--><rect codeLine="17" fill="#FEFECE" filter="url(#f1omggvn08tcto)" height="39.9688" id="SporTechBI" style="stroke:#A80036;stroke-width:1.5;" width="75" x="677.5148" y="23"/><text fill="#000000" font-family="sans-serif" font-size="12" lengthAdjust="spacing" textLength="69" x="680.5148" y="39.1387">SporTechBI</text><line style="stroke:#A80036;stroke-width:1.5;" x1="678.5148" x2="751.5148" y1="46.9688" y2="46.9688"/><line style="stroke:#A80036;stroke-width:1.5;" x1="678.5148" x2="751.5148" y1="54.9688" y2="54.9688"/><!--MD5=[f8e092794d52bf9a252466252ae7bd1c]
class System--><rect codeLine="19" fill="#FEFECE" filter="url(#f1omggvn08tcto)" height="52.7734" id="System" style="stroke:#A80036;stroke-width:1.5;" width="57" x="723.5148" y="464"/><text fill="#000000" font-family="sans-serif" font-size="12" lengthAdjust="spacing" textLength="45" x="729.5148" y="480.1387">System</text><line style="stroke:#A80036;stroke-width:1.5;" x1="724.5148" x2="779.5148" y1="487.9688" y2="487.9688"/><line style="stroke:#A80036;stroke-width:1.5;" x1="724.5148" x2="779.5148" y1="495.9688" y2="495.9688"/><text fill="#000000" font-family="sans-serif" font-size="11" lengthAdjust="spacing" textLength="45" x="729.5148" y="510.1792">launch()</text><!--MD5=[5cebc918a8b8f2d1be5940e92c560bfd]
class Contractor--><rect codeLine="22" fill="#FEFECE" filter="url(#f1omggvn08tcto)" height="78.3828" id="Contractor" style="stroke:#A80036;stroke-width:1.5;" width="69" x="874.5148" y="166"/><text fill="#000000" font-family="sans-serif" font-size="12" lengthAdjust="spacing" textLength="63" x="877.5148" y="182.1387">Contractor</text><line style="stroke:#A80036;stroke-width:1.5;" x1="875.5148" x2="942.5148" y1="189.9688" y2="189.9688"/><line style="stroke:#A80036;stroke-width:1.5;" x1="875.5148" x2="942.5148" y1="197.9688" y2="197.9688"/><text fill="#000000" font-family="sans-serif" font-size="11" lengthAdjust="spacing" textLength="48" x="880.5148" y="212.1792">update()</text><text fill="#000000" font-family="sans-serif" font-size="11" lengthAdjust="spacing" textLength="44" x="880.5148" y="224.9839">revise()</text><text fill="#000000" font-family="sans-serif" font-size="11" lengthAdjust="spacing" textLength="29" x="880.5148" y="237.7886">add()</text><!--MD5=[2cb47ba637a0d19583e6199456f6ad0b]
class Player--><rect codeLine="27" fill="#FEFECE" filter="url(#f1omggvn08tcto)" height="39.9688" id="Player" style="stroke:#A80036;stroke-width:1.5;" width="42" x="793.0148" y="185"/><text fill="#000000" font-family="sans-serif" font-size="12" lengthAdjust="spacing" textLength="36" x="796.0148" y="201.1387">Player</text><line style="stroke:#A80036;stroke-width:1.5;" x1="794.0148" x2="834.0148" y1="208.9688" y2="208.9688"/><line style="stroke:#A80036;stroke-width:1.5;" x1="794.0148" x2="834.0148" y1="216.9688" y2="216.9688"/><!--MD5=[ff3d20c1112759d46dde2fcead238479]
class Value--><rect codeLine="29" fill="#FEFECE" filter="url(#f1omggvn08tcto)" height="39.9688" id="Value" style="stroke:#A80036;stroke-width:1.5;" width="39" x="337.5148" y="340.5"/><text fill="#000000" font-family="sans-serif" font-size="12" lengthAdjust="spacing" textLength="33" x="340.5148" y="356.6387">Value</text><line style="stroke:#A80036;stroke-width:1.5;" x1="338.5148" x2="375.5148" y1="364.4688" y2="364.4688"/><line style="stroke:#A80036;stroke-width:1.5;" x1="338.5148" x2="375.5148" y1="372.4688" y2="372.4688"/><!--MD5=[9e5b8da75a877d30f0aa7c5409b00ea1]
class Demand--><rect codeLine="31" fill="#FEFECE" filter="url(#f1omggvn08tcto)" height="39.9688" id="Demand" style="stroke:#A80036;stroke-width:1.5;" width="56" x="943.0148" y="594"/><text fill="#000000" font-family="sans-serif" font-size="12" lengthAdjust="spacing" textLength="50" x="946.0148" y="610.1387">Demand</text><line style="stroke:#A80036;stroke-width:1.5;" x1="944.0148" x2="998.0148" y1="617.9688" y2="617.9688"/><line style="stroke:#A80036;stroke-width:1.5;" x1="944.0148" x2="998.0148" y1="625.9688" y2="625.9688"/><!--MD5=[43d29b841e3cba9fc026b8764d770c1d]
class Twitter--><rect codeLine="33" fill="#FEFECE" filter="url(#f1omggvn08tcto)" height="52.7734" id="Twitter" style="stroke:#A80036;stroke-width:1.5;" width="47" x="1027.5148" y="464"/><text fill="#000000" font-family="sans-serif" font-size="12" lengthAdjust="spacing" textLength="41" x="1030.5148" y="480.1387">Twitter</text><line style="stroke:#A80036;stroke-width:1.5;" x1="1028.5148" x2="1073.5148" y1="487.9688" y2="487.9688"/><line style="stroke:#A80036;stroke-width:1.5;" x1="1028.5148" x2="1073.5148" y1="495.9688" y2="495.9688"/><text fill="#000000" font-family="sans-serif" font-size="11" lengthAdjust="spacing" textLength="35" x="1033.5148" y="510.1792">feed()</text><!--MD5=[60c9ed31c535bee25c55ce21b5b01399]
class Data--><rect codeLine="42" fill="#FEFECE" filter="url(#f1omggvn08tcto)" height="52.7734" id="Data" style="stroke:#A80036;stroke-width:1.5;" width="72" x="873.0148" y="334"/><text fill="#000000" font-family="sans-serif" font-size="12" lengthAdjust="spacing" textLength="27" x="895.5148" y="350.1387">Data</text><line style="stroke:#A80036;stroke-width:1.5;" x1="874.0148" x2="944.0148" y1="357.9688" y2="357.9688"/><line style="stroke:#A80036;stroke-width:1.5;" x1="874.0148" x2="944.0148" y1="365.9688" y2="365.9688"/><text fill="#000000" font-family="sans-serif" font-size="11" lengthAdjust="spacing" textLength="60" x="879.0148" y="380.1792">integrate()</text><!--MD5=[2916714cae8f0462c1096d4fd55ce4c3]
class Season--><rect codeLine="45" fill="#FEFECE" filter="url(#f1omggvn08tcto)" height="52.7734" id="Season" style="stroke:#A80036;stroke-width:1.5;" width="69" x="9.5148" y="16.5"/><text fill="#000000" font-family="sans-serif" font-size="12" lengthAdjust="spacing" textLength="45" x="21.5148" y="32.6387">Season</text><line style="stroke:#A80036;stroke-width:1.5;" x1="10.5148" x2="77.5148" y1="40.4688" y2="40.4688"/><line style="stroke:#A80036;stroke-width:1.5;" x1="10.5148" x2="77.5148" y1="48.4688" y2="48.4688"/><text fill="#000000" font-family="sans-serif" font-size="11" lengthAdjust="spacing" textLength="57" x="15.5148" y="62.6792">progress()</text><!--MD5=[1dab20436cf0d1b1dd4840238477bf0e]
class Instagram--><rect codeLine="51" fill="#FEFECE" filter="url(#f1omggvn08tcto)" height="52.7734" id="Instagram" style="stroke:#A80036;stroke-width:1.5;" width="65" x="821.5148" y="464"/><text fill="#000000" font-family="sans-serif" font-size="12" lengthAdjust="spacing" textLength="59" x="824.5148" y="480.1387">Instagram</text><line style="stroke:#A80036;stroke-width:1.5;" x1="822.5148" x2="885.5148" y1="487.9688" y2="487.9688"/><line style="stroke:#A80036;stroke-width:1.5;" x1="822.5148" x2="885.5148" y1="495.9688" y2="495.9688"/><text fill="#000000" font-family="sans-serif" font-size="11" lengthAdjust="spacing" textLength="35" x="827.5148" y="510.1792">feed()</text><!--MD5=[6cc3ad14011ab7f07f5dfe79da9fafb1]
class Roster--><rect codeLine="60" fill="#FEFECE" filter="url(#f1omggvn08tcto)" height="39.9688" id="Roster" style="stroke:#A80036;stroke-width:1.5;" width="45" x="131.5148" y="340.5"/><text fill="#000000" font-family="sans-serif" font-size="12" lengthAdjust="spacing" textLength="39" x="134.5148" y="356.6387">Roster</text><line style="stroke:#A80036;stroke-width:1.5;" x1="132.5148" x2="175.5148" y1="364.4688" y2="364.4688"/><line style="stroke:#A80036;stroke-width:1.5;" x1="132.5148" x2="175.5148" y1="372.4688" y2="372.4688"/><!--MD5=[055ae584e8f48d8fc3c3de49aadf0637]
class Dashboard--><rect codeLine="66" fill="#FEFECE" filter="url(#f1omggvn08tcto)" height="39.9688" id="Dashboard" style="stroke:#A80036;stroke-width:1.5;" width="72" x="1107.0148" y="340.5"/><text fill="#000000" font-family="sans-serif" font-size="12" lengthAdjust="spacing" textLength="66" x="1110.0148" y="356.6387">Dashboard</text><line style="stroke:#A80036;stroke-width:1.5;" x1="1108.0148" x2="1178.0148" y1="364.4688" y2="364.4688"/><line style="stroke:#A80036;stroke-width:1.5;" x1="1108.0148" x2="1178.0148" y1="372.4688" y2="372.4688"/><!--MD5=[0e25faa1fcd99a17261c68cab7355ee4]
class Impact--><rect codeLine="68" fill="#FEFECE" filter="url(#f1omggvn08tcto)" height="39.9688" id="Impact" style="stroke:#A80036;stroke-width:1.5;" width="46" x="1214.0148" y="340.5"/><text fill="#000000" font-family="sans-serif" font-size="12" lengthAdjust="spacing" textLength="40" x="1217.0148" y="356.6387">Impact</text><line style="stroke:#A80036;stroke-width:1.5;" x1="1215.0148" x2="1259.0148" y1="364.4688" y2="364.4688"/><line style="stroke:#A80036;stroke-width:1.5;" x1="1215.0148" x2="1259.0148" y1="372.4688" y2="372.4688"/><!--MD5=[d9427b671d7d049aff2d6f2fe36a13b3]
class Field--><rect codeLine="70" fill="#FEFECE" filter="url(#f1omggvn08tcto)" height="52.7734" id="Field" style="stroke:#A80036;stroke-width:1.5;" width="63" x="113.5148" y="16.5"/><text fill="#000000" font-family="sans-serif" font-size="12" lengthAdjust="spacing" textLength="29" x="130.5148" y="32.6387">Field</text><line style="stroke:#A80036;stroke-width:1.5;" x1="114.5148" x2="175.5148" y1="40.4688" y2="40.4688"/><line style="stroke:#A80036;stroke-width:1.5;" x1="114.5148" x2="175.5148" y1="48.4688" y2="48.4688"/><text fill="#000000" font-family="sans-serif" font-size="11" lengthAdjust="spacing" textLength="51" x="119.5148" y="62.6792">capture()</text><!--MD5=[3f15a2df9840cb60193e06cbcd48594b]
class Facebook--><rect codeLine="73" fill="#FEFECE" filter="url(#f1omggvn08tcto)" height="52.7734" id="Facebook" style="stroke:#A80036;stroke-width:1.5;" width="66" x="925.0148" y="464"/><text fill="#000000" font-family="sans-serif" font-size="12" lengthAdjust="spacing" textLength="60" x="928.0148" y="480.1387">Facebook</text><line style="stroke:#A80036;stroke-width:1.5;" x1="926.0148" x2="990.0148" y1="487.9688" y2="487.9688"/><line style="stroke:#A80036;stroke-width:1.5;" x1="926.0148" x2="990.0148" y1="495.9688" y2="495.9688"/><text fill="#000000" font-family="sans-serif" font-size="11" lengthAdjust="spacing" textLength="35" x="931.0148" y="510.1792">feed()</text><!--MD5=[3db53164d4ddbdea4156eda8a776d7e7]
class Decision--><rect codeLine="80" fill="#FEFECE" filter="url(#f1omggvn08tcto)" height="52.7734" id="Decision" style="stroke:#A80036;stroke-width:1.5;" width="58" x="513.0148" y="334"/><text fill="#000000" font-family="sans-serif" font-size="12" lengthAdjust="spacing" textLength="52" x="516.0148" y="350.1387">Decision</text><line style="stroke:#A80036;stroke-width:1.5;" x1="514.0148" x2="570.0148" y1="357.9688" y2="357.9688"/><line style="stroke:#A80036;stroke-width:1.5;" x1="514.0148" x2="570.0148" y1="365.9688" y2="365.9688"/><text fill="#000000" font-family="sans-serif" font-size="11" lengthAdjust="spacing" textLength="41" x="519.0148" y="380.1792">affect()</text><!--MD5=[736dfa021baaf4f381c9890dd397bfe9]
class Line--><rect codeLine="83" fill="#FEFECE" filter="url(#f1omggvn08tcto)" height="39.9688" id="Line" style="stroke:#A80036;stroke-width:1.5;" width="30" x="526.0148" y="470.5"/><text fill="#000000" font-family="sans-serif" font-size="12" lengthAdjust="spacing" textLength="24" x="529.0148" y="486.6387">Line</text><line style="stroke:#A80036;stroke-width:1.5;" x1="527.0148" x2="555.0148" y1="494.4688" y2="494.4688"/><line style="stroke:#A80036;stroke-width:1.5;" x1="527.0148" x2="555.0148" y1="502.4688" y2="502.4688"/><!--MD5=[c680266cf9e454ca06c2d1bb8b683e6b]
class Schedule--><rect codeLine="85" fill="#FEFECE" filter="url(#f1omggvn08tcto)" height="39.9688" id="Schedule" style="stroke:#A80036;stroke-width:1.5;" width="62" x="1282.0148" y="185"/><text fill="#000000" font-family="sans-serif" font-size="12" lengthAdjust="spacing" textLength="56" x="1285.0148" y="201.1387">Schedule</text><line style="stroke:#A80036;stroke-width:1.5;" x1="1283.0148" x2="1343.0148" y1="208.9688" y2="208.9688"/><line style="stroke:#A80036;stroke-width:1.5;" x1="1283.0148" x2="1343.0148" y1="216.9688" y2="216.9688"/><!--MD5=[69d1fc2307767191063ae5624aae7618]
class Manner--><rect codeLine="87" fill="#FEFECE" filter="url(#f1omggvn08tcto)" height="39.9688" id="Manner" style="stroke:#A80036;stroke-width:1.5;" width="50" x="1111.0148" y="470.5"/><text fill="#000000" font-family="sans-serif" font-size="12" lengthAdjust="spacing" textLength="44" x="1114.0148" y="486.6387">Manner</text><line style="stroke:#A80036;stroke-width:1.5;" x1="1112.0148" x2="1160.0148" y1="494.4688" y2="494.4688"/><line style="stroke:#A80036;stroke-width:1.5;" x1="1112.0148" x2="1160.0148" y1="502.4688" y2="502.4688"/><!--MD5=[cc10e3762d31933ec3f062b0abc50bc3]
class Crawler--><rect codeLine="89" fill="#FEFECE" filter="url(#f1omggvn08tcto)" height="52.7734" id="Crawler" style="stroke:#A80036;stroke-width:1.5;" width="52" x="18.0148" y="178.5"/><text fill="#000000" font-family="sans-serif" font-size="12" lengthAdjust="spacing" textLength="46" x="21.0148" y="194.6387">Crawler</text><line style="stroke:#A80036;stroke-width:1.5;" x1="19.0148" x2="69.0148" y1="202.4688" y2="202.4688"/><line style="stroke:#A80036;stroke-width:1.5;" x1="19.0148" x2="69.0148" y1="210.4688" y2="210.4688"/><text fill="#000000" font-family="sans-serif" font-size="11" lengthAdjust="spacing" textLength="26" x="24.0148" y="224.6792">run()</text><!--MD5=[335f4d9be48430461c68bf6d6fdba145]
class App--><rect codeLine="92" fill="#FEFECE" filter="url(#f1omggvn08tcto)" height="39.9688" id="App" style="stroke:#A80036;stroke-width:1.5;" width="30" x="1295.0148" y="340.5"/><text fill="#000000" font-family="sans-serif" font-size="12" lengthAdjust="spacing" textLength="24" x="1298.0148" y="356.6387">App</text><line style="stroke:#A80036;stroke-width:1.5;" x1="1296.0148" x2="1324.0148" y1="364.4688" y2="364.4688"/><line style="stroke:#A80036;stroke-width:1.5;" x1="1296.0148" x2="1324.0148" y1="372.4688" y2="372.4688"/><!--MD5=[f5ea1f64bc04260f09f32845b6b2c213]
class Portal--><rect codeLine="94" fill="#FEFECE" filter="url(#f1omggvn08tcto)" height="39.9688" id="Portal" style="stroke:#A80036;stroke-width:1.5;" width="39" x="1408.5148" y="23"/><text fill="#000000" font-family="sans-serif" font-size="12" lengthAdjust="spacing" textLength="33" x="1411.5148" y="39.1387">Portal</text><line style="stroke:#A80036;stroke-width:1.5;" x1="1409.5148" x2="1446.5148" y1="46.9688" y2="46.9688"/><line style="stroke:#A80036;stroke-width:1.5;" x1="1409.5148" x2="1446.5148" y1="54.9688" y2="54.9688"/><!--MD5=[49e8fb5ba48142b49fdb91a942c8efa0]
class Second--><rect codeLine="96" fill="#FEFECE" filter="url(#f1omggvn08tcto)" height="39.9688" id="Second" style="stroke:#A80036;stroke-width:1.5;" width="52" x="1402.0148" y="185"/><text fill="#000000" font-family="sans-serif" font-size="12" lengthAdjust="spacing" textLength="46" x="1405.0148" y="201.1387">Second</text><line style="stroke:#A80036;stroke-width:1.5;" x1="1403.0148" x2="1453.0148" y1="208.9688" y2="208.9688"/><line style="stroke:#A80036;stroke-width:1.5;" x1="1403.0148" x2="1453.0148" y1="216.9688" y2="216.9688"/><!--MD5=[a030fa97ffb865708cae79f6847e8968]
class Condition--><rect codeLine="98" fill="#FEFECE" filter="url(#f1omggvn08tcto)" height="39.9688" id="Condition" style="stroke:#A80036;stroke-width:1.5;" width="62" x="473.0148" y="594"/><text fill="#000000" font-family="sans-serif" font-size="12" lengthAdjust="spacing" textLength="56" x="476.0148" y="610.1387">Condition</text><line style="stroke:#A80036;stroke-width:1.5;" x1="474.0148" x2="534.0148" y1="617.9688" y2="617.9688"/><line style="stroke:#A80036;stroke-width:1.5;" x1="474.0148" x2="534.0148" y1="625.9688" y2="625.9688"/><!--MD5=[fb6a869c186c9738fb711cc78d5127cb]
reverse link Portal to Second--><path codeLine="102" d="M1428.0148,83.742 C1428.0148,115.876 1428.0148,159.731 1428.0148,184.632 " fill="none" id="Portal-backto-Second" style="stroke:#A80036;stroke-width:1.0;"/><polygon fill="none" points="1421.0148,83.3,1428.0148,63.3,1435.0148,83.3,1421.0148,83.3" style="stroke:#A80036;stroke-width:1.0;"/><!--MD5=[411145a7fff47287506639ffbb6e6974]
link GM to Value--><path codeLine="103" d="M438.3898,257.169 C432.3658,272.903 424.5838,289.803 415.0148,304 C405.5668,318.017 392.0518,331.21 380.4448,341.214 " fill="none" id="GM-to-Value" style="stroke:#A80036;stroke-width:1.0;"/><polygon fill="#A80036" points="376.5908,344.48,386.0433,341.7144,380.4057,341.248,380.8721,335.6104,376.5908,344.48" style="stroke:#A80036;stroke-width:1.0;"/><text fill="#000000" font-family="sans-serif" font-size="13" lengthAdjust="spacing" textLength="46" x="425.0148" y="300.0669">extract</text><!--MD5=[411145a7fff47287506639ffbb6e6974]
link GM to Value--><path codeLine="115" d="M418.4868,222.8 C394.2928,236.38 364.1828,258.008 350.0148,287 C342.7458,301.874 344.7428,320.497 348.4288,335.143 " fill="none" id="GM-to-Value-1" style="stroke:#A80036;stroke-width:1.0;"/><polygon fill="#A80036" points="349.8498,340.345,351.3381,330.6092,348.5328,335.5215,343.6205,332.7163,349.8498,340.345" style="stroke:#A80036;stroke-width:1.0;"/><text fill="#000000" font-family="sans-serif" font-size="13" lengthAdjust="spacing" textLength="55" x="351.0148" y="300.0669">visualize</text><!--MD5=[63b6f58fdd481ce6f57e7b94b44dd6b8]
reverse link GM to Data--><path codeLine="104" d="M502.1858,222.251 C593.8448,253.174 791.4528,319.839 872.8478,347.299 " fill="none" id="GM-backto-Data" style="stroke:#A80036;stroke-width:1.0;"/><polygon fill="#FFFFFF" points="489.7178,218.045,494.1249,223.7526,501.0886,221.8797,496.6814,216.1721,489.7178,218.045" style="stroke:#A80036;stroke-width:1.0;"/><text fill="#000000" font-family="sans-serif" font-size="13" lengthAdjust="spacing" textLength="46" x="737.0148" y="300.0669">extract</text><!--MD5=[1121c6727b1b994d339c072402071830]
link Decision to Line--><path codeLine="105" d="M541.8148,387.095 C541.6378,409.789 541.3808,442.707 541.2058,465.048 " fill="none" id="Decision-to-Line" style="stroke:#A80036;stroke-width:1.0;"/><polygon fill="#A80036" points="541.1658,470.207,545.2351,461.2381,541.2043,465.2071,537.2353,461.1764,541.1658,470.207" style="stroke:#A80036;stroke-width:1.0;"/><text fill="#000000" font-family="sans-serif" font-size="13" lengthAdjust="spacing" textLength="38" x="543.0148" y="430.0669">affect</text><!--MD5=[a5acc9ca93ae99540ba6908e5db225cb]
reverse link SporTechBI to System--><path codeLine="106" d="M709.9358,76.146 C702.9618,125.405 692.4228,222.43 703.0148,304 C710.5848,362.302 731.0088,428.387 742.9638,463.81 " fill="none" id="SporTechBI-backto-System" style="stroke:#A80036;stroke-width:1.0;"/><polygon fill="#FFFFFF" points="711.8728,63.016,707.04,68.3681,710.1216,74.8875,714.9544,69.5355,711.8728,63.016" style="stroke:#A80036;stroke-width:1.0;"/><!--MD5=[ccf6f9f38bb8fec2a2562aae303dcd84]
link Coach to Value--><path codeLine="107" d="M104.8674,246.603 C91.6067,265.267 83.2473,286.983 97.0148,304 C111.9098,322.41 270.0228,346.972 332.1508,355.99 " fill="none" id="Coach-to-Value" style="stroke:#A80036;stroke-width:1.0;"/><polygon fill="#A80036" points="337.1578,356.713,328.8215,351.4683,332.209,355.9987,327.6786,359.3862,337.1578,356.713" style="stroke:#A80036;stroke-width:1.0;"/><text fill="#000000" font-family="sans-serif" font-size="13" lengthAdjust="spacing" textLength="46" x="98.0148" y="300.0669">extract</text><!--MD5=[ccf6f9f38bb8fec2a2562aae303dcd84]
link Coach to Value--><path codeLine="108" d="M153.9038,250.871 C160.0588,269.516 169.8078,290.021 185.0148,304 C226.8478,342.454 295.5668,354.277 332.1998,357.903 " fill="none" id="Coach-to-Value-1" style="stroke:#A80036;stroke-width:1.0;"/><polygon fill="#A80036" points="337.3648,358.38,328.7709,353.5689,332.386,357.92,328.0349,361.535,337.3648,358.38" style="stroke:#A80036;stroke-width:1.0;"/><text fill="#000000" font-family="sans-serif" font-size="13" lengthAdjust="spacing" textLength="55" x="186.0148" y="300.0669">visualize</text><!--MD5=[f7f98844ef561578b9f410327a50aa81]
reverse link Manner to Demand--><path codeLine="109" d="M1121.8348,522.574 C1114.0948,536.7422 1103.3548,552.8112 1090.0148,564 C1063.3148,586.4007 1024.9648,599.6961 999.0788,606.6651 " fill="none" id="Manner-backto-Demand" style="stroke:#A80036;stroke-width:1.0;"/><polygon fill="#FFFFFF" points="1127.8548,510.784,1121.5655,514.3118,1122.403,521.4741,1128.6922,517.9463,1127.8548,510.784" style="stroke:#A80036;stroke-width:1.0;"/><!--MD5=[612640c586703e815e1f5e175a7a3be0]
reverse link Twitter to Reaction--><path codeLine="110" d="M1034.0748,528.948 C1026.3848,541.9621 1016.0548,555.4302 1003.0148,564 C962.8348,590.4096 819.5538,605.3694 757.7408,610.7219 " fill="none" id="Twitter-backto-Reaction" style="stroke:#A80036;stroke-width:1.0;"/><polygon fill="#FFFFFF" points="1040.3948,517.278,1034.02,520.6488,1034.6797,527.8297,1041.0545,524.4589,1040.3948,517.278" style="stroke:#A80036;stroke-width:1.0;"/><!--MD5=[9e70175148f4bb6979afff5927f05dfe]
link Manger to Demand--><path codeLine="111" d="M677.0388,507.011 C745.2118,531.59 876.6058,578.9622 937.9528,601.0799 " fill="none" id="Manger-to-Demand" style="stroke:#A80036;stroke-width:1.0;"/><polygon fill="#A80036" points="942.9568,602.8843,935.8467,596.0691,938.2531,601.1886,933.1336,603.595,942.9568,602.8843" style="stroke:#A80036;stroke-width:1.0;"/><text fill="#000000" font-family="sans-serif" font-size="13" lengthAdjust="spacing" textLength="50" x="834.0148" y="560.0669">monitor</text><!--MD5=[15b1ee8fdcda5f30b6a480a68ae3e2f5]
link SoccerCoach to Schedule--><path codeLine="112" d="M1313.0148,76.378 C1313.0148,106.854 1313.0148,151.827 1313.0148,179.447 " fill="none" id="SoccerCoach-to-Schedule" style="stroke:#A80036;stroke-width:1.0;"/><polygon fill="#A80036" points="1313.0148,184.73,1317.0148,175.73,1313.0148,179.73,1309.0148,175.73,1313.0148,184.73" style="stroke:#A80036;stroke-width:1.0;"/><text fill="#000000" font-family="sans-serif" font-size="13" lengthAdjust="spacing" textLength="60" x="1314.0148" y="119.0669">configure</text><!--MD5=[c6ef50d4d78fe4b066093134b18ca2df]
reverse link Player to Value--><path codeLine="113" d="M814.3858,238.217 C812.7848,260.142 806.7708,287.984 788.0148,304 C738.2408,346.502 559.8038,324.713 495.0148,334 C452.5678,340.085 403.2588,349.856 376.5858,355.368 " fill="none" id="Player-backto-Value" style="stroke:#A80036;stroke-width:1.0;"/><polygon fill="#FFFFFF" points="814.8878,225.169,810.6599,231.0107,814.4262,237.1601,818.654,231.3184,814.8878,225.169" style="stroke:#A80036;stroke-width:1.0;"/><!--MD5=[b94b9a35c7944b1957e0ae9bda2faf0f]
reverse link Facebook to Reaction--><path codeLine="114" d="M912.7998,513.715 C909.8538,514.893 906.9088,516.001 904.0148,517 C847.1438,536.6278 821.3818,512.613 772.0148,547 C755.4068,558.5685 743.6298,578.82 736.6488,593.8483 " fill="none" id="Facebook-backto-Reaction" style="stroke:#A80036;stroke-width:1.0;"/><polygon fill="#FFFFFF" points="924.7838,508.573,917.6927,507.2627,913.7559,513.3043,920.8469,514.6146,924.7838,508.573" style="stroke:#A80036;stroke-width:1.0;"/><!--MD5=[bc0ef1902adce0626a327d1fa06af772]
link Manger to Reaction--><path codeLine="116" d="M626.2248,517.119 C623.2998,531.875 622.4708,550.1762 631.0148,564 C644.9608,586.5651 672.7938,599.0863 695.2458,605.8103 " fill="none" id="Manger-to-Reaction" style="stroke:#A80036;stroke-width:1.0;"/><polygon fill="#A80036" points="700.2388,607.2382,692.6866,600.9164,695.4317,605.8626,690.4856,608.6077,700.2388,607.2382" style="stroke:#A80036;stroke-width:1.0;"/><text fill="#000000" font-family="sans-serif" font-size="13" lengthAdjust="spacing" textLength="50" x="632.0148" y="560.0669">monitor</text><!--MD5=[ef7a677dfa79e1730ff14c84b5f5132b]
reverse link Player to Data--><path codeLine="117" d="M832.8548,236.442 C850.5188,264.983 876.6268,307.167 893.2248,333.987 " fill="none" id="Player-backto-Data" style="stroke:#A80036;stroke-width:1.0;"/><polygon fill="#FFFFFF" points="825.8548,225.131,825.611,232.338,832.1699,235.3349,832.4136,228.1279,825.8548,225.131" style="stroke:#A80036;stroke-width:1.0;"/><!--MD5=[dab8cd1006f357c5080512cb7dbe8aee]
link GM to Decision--><path codeLine="118" d="M489.8058,217.747 C520.1718,229.836 561.7788,251.916 581.0148,287 C588.7368,301.083 582.1638,316.772 572.3588,329.944 " fill="none" id="GM-to-Decision" style="stroke:#A80036;stroke-width:1.0;"/><polygon fill="#A80036" points="569.2248,333.946,577.9235,329.3274,572.308,330.0098,571.6256,324.3943,569.2248,333.946" style="stroke:#A80036;stroke-width:1.0;"/><text fill="#000000" font-family="sans-serif" font-size="13" lengthAdjust="spacing" textLength="36" x="586.0148" y="300.0669">make</text><!--MD5=[c81e3c59bdba98824a48e28a0044be20]
link Manger to Condition--><path codeLine="119" d="M590.9818,510.163 C565.7908,521.809 537.1778,536.5239 528.0148,547 C517.8108,558.6668 511.8228,575.0218 508.3798,588.5318 " fill="none" id="Manger-to-Condition" style="stroke:#A80036;stroke-width:1.0;"/><polygon fill="#A80036" points="507.1398,593.7439,513.1149,585.9146,508.2974,588.8798,505.3323,584.0623,507.1398,593.7439" style="stroke:#A80036;stroke-width:1.0;"/><text fill="#000000" font-family="sans-serif" font-size="13" lengthAdjust="spacing" textLength="88" x="529.0148" y="560.0669">supported_by</text><!--MD5=[2b3f8bee6aea3628fe8df11393e25f04]
link Data to Manner--><path codeLine="120" d="M945.2138,381.57 C982.1958,402.122 1041.2348,435.065 1092.0148,464 C1096.7148,466.677 1101.6848,469.533 1106.5248,472.329 " fill="none" id="Data-to-Manner" style="stroke:#A80036;stroke-width:1.0;"/><polygon fill="#A80036" points="1110.9248,474.873,1105.1318,466.908,1106.595,472.3723,1101.1307,473.8356,1110.9248,474.873" style="stroke:#A80036;stroke-width:1.0;"/><text fill="#000000" font-family="sans-serif" font-size="13" lengthAdjust="spacing" textLength="58" x="1038.0148" y="430.0669">integrate</text><!--MD5=[401967659874aea1a33bf18ae03e981d]
link Coach to Roster--><path codeLine="121" d="M104.9985,243.432 C99.1736,248.263 93.0823,252.935 87.0148,257 C58.2877,276.246 6,275.119 25.0148,304 C47.3841,337.976 95.3912,351.239 126.1158,356.357 " fill="none" id="Coach-to-Roster" style="stroke:#A80036;stroke-width:1.0;"/><polygon fill="#A80036" points="131.2658,357.166,122.9952,351.8183,126.3263,356.3904,121.7542,359.7214,131.2658,357.166" style="stroke:#A80036;stroke-width:1.0;"/><text fill="#000000" font-family="sans-serif" font-size="13" lengthAdjust="spacing" textLength="30" x="26.0148" y="300.0669">build</text><!--MD5=[7f36ef74c58d51f896bdafb10e134c6a]
reverse link Instagram to Reaction--><path codeLine="122" d="M809.3328,511.877 C805.5058,513.613 801.6928,515.339 798.0148,517 C768.2788,530.427 749.1688,519.89 731.0148,547 C721.8938,560.6211 722.3388,579.6187 724.5088,593.736 " fill="none" id="Instagram-backto-Reaction" style="stroke:#A80036;stroke-width:1.0;"/><polygon fill="#FFFFFF" points="821.4578,506.367,814.3405,505.2077,810.5329,511.3316,817.6502,512.4909,821.4578,506.367" style="stroke:#A80036;stroke-width:1.0;"/><!--MD5=[38fe845a21f560745ba5c6aab3cc98e7]
link Contractor to Data--><path codeLine="123" d="M943.5788,243.858 C955.7048,261.734 964.6188,283.583 957.0148,304 C953.5638,313.267 947.7918,322.017 941.4248,329.711 " fill="none" id="Contractor-to-Data" style="stroke:#A80036;stroke-width:1.0;"/><polygon fill="#A80036" points="937.8368,333.874,946.7418,329.6667,941.1005,330.0861,940.6811,324.4448,937.8368,333.874" style="stroke:#A80036;stroke-width:1.0;"/><text fill="#000000" font-family="sans-serif" font-size="13" lengthAdjust="spacing" textLength="39" x="961.0148" y="300.0669">revise</text><!--MD5=[38fe845a21f560745ba5c6aab3cc98e7]
link Contractor to Data--><path codeLine="131" d="M903.9108,244.153 C902.0958,262.28 900.7748,284.253 902.0148,304 C902.5148,311.954 903.4128,320.512 904.4038,328.468 " fill="none" id="Contractor-to-Data-1" style="stroke:#A80036;stroke-width:1.0;"/><polygon fill="#A80036" points="905.0998,333.866,907.9148,324.428,904.4597,328.9071,899.9806,325.4521,905.0998,333.866" style="stroke:#A80036;stroke-width:1.0;"/><text fill="#000000" font-family="sans-serif" font-size="13" lengthAdjust="spacing" textLength="45" x="903.0148" y="300.0669">update</text><!--MD5=[b34c94832c42dba1cf640b054bac1364]
link Twitter to Demand--><path codeLine="124" d="M1053.7348,517.325 C1054.0548,531.975 1052.3048,550.1 1044.0148,564 C1034.8048,579.443 1018.6048,591.0498 1003.8088,599.0805 " fill="none" id="Twitter-to-Demand" style="stroke:#A80036;stroke-width:1.0;"/><polygon fill="#A80036" points="999.2708,601.4583,1009.0991,600.823,1003.6993,599.1371,1005.3852,593.7373,999.2708,601.4583" style="stroke:#A80036;stroke-width:1.0;"/><text fill="#000000" font-family="sans-serif" font-size="13" lengthAdjust="spacing" textLength="29" x="1052.0148" y="560.0669">feed</text><!--MD5=[af3d13d7220df768ae23b8612ede4cdc]
reverse link SporTechBIContractor to Contractor--><path codeLine="125" d="M909.0148,83.498 C909.0148,108.578 909.0148,140.872 909.0148,165.714 " fill="none" id="SporTechBIContractor-backto-Contractor" style="stroke:#A80036;stroke-width:1.0;"/><polygon fill="none" points="902.0148,83.3,909.0148,63.3,916.0148,83.3,902.0148,83.3" style="stroke:#A80036;stroke-width:1.0;"/><!--MD5=[4b0afda13744a193096420e1b0ce2312]
link Instagram to Demand--><path codeLine="126" d="M878.8278,517.267 C899.5398,538.7763 928.7998,569.1612 948.7638,589.8928 " fill="none" id="Instagram-to-Demand" style="stroke:#A80036;stroke-width:1.0;"/><polygon fill="#A80036" points="952.3788,593.6472,949.0169,584.3899,948.9104,590.0457,943.2546,589.9392,952.3788,593.6472" style="stroke:#A80036;stroke-width:1.0;"/><text fill="#000000" font-family="sans-serif" font-size="13" lengthAdjust="spacing" textLength="29" x="924.0148" y="560.0669">feed</text><!--MD5=[352bec4706ec632f0162cf62dbeaf51c]
link Customer to Dashboard--><path codeLine="127" d="M1185.6948,238.179 C1175.4848,267.19 1160.7048,309.203 1151.4948,335.406 " fill="none" id="Customer-to-Dashboard" style="stroke:#A80036;stroke-width:1.0;"/><polygon fill="#A80036" points="1149.7248,340.427,1156.4869,333.2664,1151.3854,335.7108,1148.941,330.6094,1149.7248,340.427" style="stroke:#A80036;stroke-width:1.0;"/><text fill="#000000" font-family="sans-serif" font-size="13" lengthAdjust="spacing" textLength="23" x="1170.0148" y="300.0669">see</text><!--MD5=[9b5cac166cdab0bb423bef2a88f8f812]
link Customer to Data--><path codeLine="128" d="M1147.5048,232.388 C1091.6148,262.176 1001.7268,310.086 949.7388,337.795 " fill="none" id="Customer-to-Data" style="stroke:#A80036;stroke-width:1.0;"/><polygon fill="#A80036" points="945.1368,340.247,954.9605,339.5447,949.5494,337.8957,951.1985,332.4845,945.1368,340.247" style="stroke:#A80036;stroke-width:1.0;"/><text fill="#000000" font-family="sans-serif" font-size="13" lengthAdjust="spacing" textLength="39" x="1046.0148" y="300.0669">ingest</text><!--MD5=[02c35b805d50a00c1852e1d3168c6773]
link GM to Roster--><path codeLine="129" d="M418.4228,224.211 C357.8568,255.201 236.0228,317.539 181.4938,345.44 " fill="none" id="GM-to-Roster" style="stroke:#A80036;stroke-width:1.0;"/><polygon fill="#A80036" points="176.7438,347.87,186.5779,347.331,181.1948,345.5923,182.9335,340.2093,176.7438,347.87" style="stroke:#A80036;stroke-width:1.0;"/><text fill="#000000" font-family="sans-serif" font-size="13" lengthAdjust="spacing" textLength="30" x="297.0148" y="300.0669">build</text><!--MD5=[c4f6f9fb8801d9f41741ed5e7ffdefdc]
link Customer to Impact--><path codeLine="130" d="M1205.4048,238.179 C1212.9648,267.19 1223.9048,309.203 1230.7348,335.406 " fill="none" id="Customer-to-Impact" style="stroke:#A80036;stroke-width:1.0;"/><polygon fill="#A80036" points="1232.0448,340.427,1233.6427,330.7086,1230.7823,335.589,1225.9019,332.7286,1232.0448,340.427" style="stroke:#A80036;stroke-width:1.0;"/><text fill="#000000" font-family="sans-serif" font-size="13" lengthAdjust="spacing" textLength="23" x="1223.0148" y="300.0669">see</text><!--MD5=[fcebf9f28507407b9906ab6e0db8873b]
link Customer to App--><path codeLine="132" d="M1220.7048,238.179 C1242.3248,267.552 1273.7648,310.255 1292.9948,336.381 " fill="none" id="Customer-to-App" style="stroke:#A80036;stroke-width:1.0;"/><polygon fill="#A80036" points="1295.9748,340.427,1293.8463,330.8109,1293.0046,336.4048,1287.4107,335.5631,1295.9748,340.427" style="stroke:#A80036;stroke-width:1.0;"/><text fill="#000000" font-family="sans-serif" font-size="13" lengthAdjust="spacing" textLength="23" x="1268.0148" y="300.0669">see</text><!--MD5=[d6563f1afb67c85169d7cbf4967cee1d]
link Facebook to Demand--><path codeLine="133" d="M960.7718,517.267 C963.0258,538.3301 966.1898,567.9042 968.4028,588.5902 " fill="none" id="Facebook-to-Demand" style="stroke:#A80036;stroke-width:1.0;"/><polygon fill="#A80036" points="968.9438,593.6472,971.9634,584.2727,968.4117,588.6756,964.0088,585.1239,968.9438,593.6472" style="stroke:#A80036;stroke-width:1.0;"/><text fill="#000000" font-family="sans-serif" font-size="13" lengthAdjust="spacing" textLength="29" x="967.0148" y="560.0669">feed</text><!--MD5=[59bc476e3895e73ed4257187fa5e23dc]
link Coach to Decision--><path codeLine="134" d="M183.0638,212.297 C260.4258,225.272 430.0088,256.346 480.0148,287 C497.3098,297.602 512.2478,314.655 523.1248,329.56 " fill="none" id="Coach-to-Decision" style="stroke:#A80036;stroke-width:1.0;"/><polygon fill="#A80036" points="526.0838,333.699,524.1059,324.0508,523.1769,329.6308,517.5969,328.7018,526.0838,333.699" style="stroke:#A80036;stroke-width:1.0;"/><text fill="#000000" font-family="sans-serif" font-size="13" lengthAdjust="spacing" textLength="36" x="502.0148" y="300.0669">make</text><!--MD5=[ff86de57627de474c65a6aada275c52f]
link Data to System--><path codeLine="135" d="M877.6208,387.095 C850.6688,409.069 811.9608,440.627 784.6548,462.889 " fill="none" id="Data-to-System" style="stroke:#A80036;stroke-width:1.0;"/><polygon fill="#A80036" points="780.7108,466.104,790.2143,463.519,784.5866,462.9453,785.1604,457.3176,780.7108,466.104" style="stroke:#A80036;stroke-width:1.0;"/><text fill="#000000" font-family="sans-serif" font-size="13" lengthAdjust="spacing" textLength="88" x="841.0148" y="430.0669">supported_by</text><!--MD5=[1a3d408ab721edaa1973bb5272ac095b]
reverse link SporTechBI to Contractor--><path codeLine="136" d="M750.3168,71.18 C778.2538,92.906 818.0778,124.358 852.0148,153 C859.3208,159.166 867.0268,165.898 874.3288,172.39 " fill="none" id="SporTechBI-backto-Contractor" style="stroke:#A80036;stroke-width:1.0;"/><polygon fill="#FFFFFF" points="739.8608,63.071,742.1512,69.9087,749.3438,70.4243,747.0534,63.5866,739.8608,63.071" style="stroke:#A80036;stroke-width:1.0;"/><!--MD5=[e07e5b36859bbdd1e7d3ffaebf33b500]
link Season to Field--><!--MD5=[c6828b62c555e59b63730d12ebc3c8ed]
link Season to Crawler--><!--MD5=[5cf7dfef97a20bd38bb5b8726c9f5634]
@startuml
hide circle
class Coach<actor> {
}
class GM<actor> {
	data
}
class SporTechBIContractor<actor> {
}
class Manger<actor> {
}
class Customer<actor> {
}
class SoccerCoach<actor> {
}
class Reaction {
}
class SporTechBI {
}
class System {
	launch()
}
class Contractor {
	update()
	revise()
	add()
}
class Player {
}
class Value {
}
class Demand {
}
class Twitter {
	feed()
}
class GM {
	visualize()
	make()
	extract()
	build()
}
class Data {
	integrate()
}
class Season {
	progress()
}
class Manger {
	monitor()
}
class Instagram {
	feed()
}
class Coach {
	visualize()
	make()
	extract()
	build()
}
class Roster {
}
class Customer {
	see()
	ingest()
}
class Dashboard {
}
class Impact {
}
class Field {
	capture()
}
class Facebook {
	feed()
}
class SoccerCoach {
	configure()
	specify()
}
class Decision {
	affect()
}
class Line {
}
class Schedule {
}
class Manner {
}
class Crawler {
	run()
}
class App {
}
class Portal {
}
class Second {
}
class Condition {
}
class SporTechBIContractor {
}
Portal <|- - Second
GM - -> Value : extract
GM o- - Data : extract
Decision - -> Line : affect
SporTechBI o- - System
Coach - -> Value : extract
Coach - -> Value : visualize
Manner o- - Demand
Twitter o- - Reaction
Manger - -> Demand : monitor
SoccerCoach - -> Schedule : configure
Player o- - Value
Facebook o- - Reaction
GM - -> Value : visualize
Manger - -> Reaction : monitor
Player o- - Data
GM - -> Decision : make
Manger - -> Condition : supported_by
Data - -> Manner : integrate
Coach - -> Roster : build
Instagram o- - Reaction
Contractor - -> Data : revise
Twitter - -> Demand : feed
SporTechBIContractor <|- - Contractor
Instagram - -> Demand : feed
Customer - -> Dashboard : see
Customer - -> Data : ingest
GM - -> Roster : build
Customer - -> Impact : see
Contractor - -> Data : update
Customer - -> App : see
Facebook - -> Demand : feed
Coach - -> Decision : make
Data - -> System : supported_by
SporTechBI o- - Contractor
@enduml

PlantUML version 1.2021.11beta2(Unknown compile time)
(GPL source distribution)
Java Runtime: Java(TM) SE Runtime Environment
JVM: Java HotSpot(TM) 64-Bit Server VM
Default Encoding: UTF-8
Language: en
Country: US
--></g></svg>